<?xml version="1.0" standalone="no"?>
<!DOCTYPE svg PUBLIC "-//W3C//DTD SVG 20010904//EN"
 "http://www.w3.org/TR/2001/REC-SVG-20010904/DTD/svg10.dtd">
<svg version="1.0" xmlns="http://www.w3.org/2000/svg"
 width="100.000000pt" height="100.000000pt" viewBox="0 0 100.000000 100.000000"
 preserveAspectRatio="xMidYMid meet">
<metadata>
Created by potrace 1.16, written by Peter Selinger 2001-2019
</metadata>
<g transform="translate(0.000000,100.000000) scale(0.100000,-0.100000)"
fill="#000000" stroke="none">
<path d="M34 949 c-9 -15 885 -909 908 -909 28 0 21 31 -14 67 l-32 33 32 0
32 0 0 360 0 360 -393 0 -393 0 -49 50 c-48 49 -77 61 -91 39z m886 -401 l0
-273 -113 113 c-62 61 -119 112 -127 112 -8 0 -29 -14 -47 -32 l-34 -32 -192
192 -192 192 353 0 352 0 0 -272z m-117 -226 c64 -64 117 -123 117 -130 0 -7
-13 -12 -33 -12 -28 0 -47 15 -142 110 -107 108 -109 109 -90 130 10 11 21 20
24 20 4 0 59 -53 124 -118z"/>
<path d="M40 500 l0 -360 372 0 c370 0 371 0 353 20 -17 19 -31 20 -352 20
l-333 0 0 73 1 72 129 119 c72 66 130 125 130 131 0 7 -7 18 -15 25 -12 10
-33 -6 -127 -94 l-113 -106 -3 207 c-2 143 1 209 8 211 14 5 -18 42 -37 42
-11 0 -13 -65 -13 -360z"/>
</g>
</svg>
